<svg xmlns="http://www.w3.org/2000/svg" width="800" height="1200" viewBox="0 0 800 1200">
  <!-- Background -->
  <rect width="100%" height="100%" fill="white" />
  
  <!-- Title -->
  <text x="40" y="60" font-family="Arial" font-size="42" font-weight="bold" fill="black">
    A BRIEF HISTORY
  </text>
  <text x="40" y="110" font-family="Arial" font-size="42" font-weight="bold" fill="black">
    OF GAMBIT
  </text>
  
  <!-- Timeline Path -->
  <path d="M150,160 
           v40 
           a40,40 0 0 0 40,40 
           h400 
           a40,40 0 0 1 40,40 
           v80 
           a40,40 0 0 1 -40,40 
           H190 
           a40,40 0 0 0 -40,40 
           v80 
           a40,40 0 0 0 40,40 
           h400 
           a40,40 0 0 1 40,40 
           v80 
           a40,40 0 0 1 -40,40 
           H190 
           a40,40 0 0 0 -40,40 
           v80 
           a40,40 0 0 0 40,40 
           h400 
           a40,40 0 0 1 40,40 
           v80 
           a40,40 0 0 1 -40,40 
           H190 
           a40,40 0 0 0 -40,40 
           v40" 
        stroke="#cc0000" 
        stroke-width="20" 
        fill="none" 
        stroke-linecap="round" />
  
  <!-- Timeline Circles -->
  <circle cx="150" cy="160" r="20" fill="#cc0000" />
  <circle cx="630" cy="320" r="20" fill="#cc0000" />
  <circle cx="150" cy="480" r="20" fill="#cc0000" />
  <circle cx="630" cy="640" r="20" fill="#cc0000" />
  <circle cx="150" cy="800" r="20" fill="#cc0000" />
  <circle cx="630" cy="960" r="20" fill="#cc0000" />
  <circle cx="150" cy="1120" r="20" fill="#cc0000" />
  
  <!-- Timeline Events -->
  <!-- Mid-1980s -->
  <text x="80" y="150" font-family="Arial" font-size="24" font-weight="bold" fill="black">
    MID-1980s
  </text>
  <text x="250" y="150" font-family="Arial" font-size="24" font-weight="normal" fill="black">
    Gambit Project founded at California Institute of Technology
  </text>
  
  <!-- 1994 -->
  <text x="600" y="310" font-family="Arial" font-size="24" font-weight="bold" fill="black">
    1994
  </text>
  <text x="250" y="310" font-family="Arial" font-size="24" font-weight="normal" fill="black">
    First public release (version 0.13)
  </text>
  
  <!-- 2000s -->
  <text x="80" y="470" font-family="Arial" font-size="24" font-weight="bold" fill="black">
    2000s
  </text>
  <text x="250" y="470" font-family="Arial" font-size="24" font-weight="normal" fill="black">
    NSF grants awarded, version 0.94 released
  </text>
  
  <!-- 2011-12 -->
  <text x="600" y="630" font-family="Arial" font-size="24" font-weight="bold" fill="black">
    2011-12
  </text>
  <text x="250" y="630" font-family="Arial" font-size="24" font-weight="normal" fill="black">
    Graphical interface reimplemented
  </text>
  <text x="250" y="658" font-family="Arial" font-size="24" font-weight="normal" fill="black">
    internal architecture refactored
  </text>
  
  <!-- 2024– -->
  <text x="80" y="790" font-family="Arial" font-size="24" font-weight="bold" fill="black">
    2024–
  </text>
  <text x="250" y="790" font-family="Arial" font-size="24" font-weight="normal" fill="black">
    Python API developed in Google Summer of Code
  </text>
  
  <!-- 2024-Future -->
  <text x="580" y="1110" font-family="Arial" font-size="24" font-weight="bold" fill="black">
    2024-FUTURE
  </text>
  <text x="250" y="950" font-family="Arial" font-size="24" font-weight="normal" fill="black">
    Development as part of Automated analysis of strategic interactions project
  </text>
  
</svg>