<svg xmlns="http://www.w3.org/2000/svg" width="800" height="1200" viewBox="0 0 800 1200">
  <!-- Background -->
  <rect width="100%" height="100%" fill="white" />
  
  <!-- Timeline Path -->
  <path d="M150,160 
           v40 
           a40,40 0 0 0 40,40 
           h400 
           a40,40 0 0 1 40,40 
           v80 
           a40,40 0 0 1 -40,40 
           H190 
           a40,40 0 0 0 -40,40 
           v80 
           a40,40 0 0 0 40,40 
           h400 
           a40,40 0 0 1 40,40 
           v80 
           a40,40 0 0 1 -40,40 
           H190 
           a40,40 0 0 0 -40,40 
           v80 
           a40,40 0 0 0 40,40 
           h400 
           a40,40 0 0 1 40,40 
           v80 
           a40,40 0 0 1 -40,40 
           H190 
           a40,40 0 0 0 -40,40 
           v40" 
        stroke="#cc0000" 
        stroke-width="20" 
        fill="none" 
        stroke-linecap="round" />
  
  <!-- Timeline Circles -->
  <circle cx="150" cy="160" r="20" fill="#cc0000" />
  <circle cx="630" cy="320" r="20" fill="#cc0000" />
  <circle cx="150" cy="480" r="20" fill="#cc0000" />
  <circle cx="630" cy="640" r="20" fill="#cc0000" />
  <circle cx="150" cy="800" r="20" fill="#cc0000" />
  <circle cx="630" cy="960" r="20" fill="#cc0000" />
  <circle cx="150" cy="1120" r="20" fill="#cc0000" />
  
  <!-- Timeline Events -->

  <text x="50" y="180" font-family="Arial" font-size="24" font-weight="bold" fill="black">
    1980s
  </text>
  <text x="190" y="180" font-family="Arial" font-size="24" font-weight="normal" fill="black">
    Implemented in BASIC at Caltech
  </text>
  
  <text x="660" y="330" font-family="Arial" font-size="24" font-weight="bold" fill="black">
    Early-1990s
  </text>
  <text x="190" y="330" font-family="Arial" font-size="24" font-weight="normal" fill="black">
    Ported to C and distributed publicly
  </text>
  
  <text x="50" y="488" font-family="Arial" font-size="24" font-weight="bold" fill="black">
    1990s
  </text>
  <text x="190" y="460" font-family="Arial" font-size="24" font-weight="normal" fill="black">
    C++ re-write
    <tspan x="190" y="488">Addition of GUI</tspan>
    <tspan x="190" y="516">Sequence form methods for two-player extensive games</tspan>
  </text>
  
  <text x="660" y="650" font-family="Arial" font-size="24" font-weight="bold" fill="black">
    2000s
  </text>
  <text x="190" y="630" font-family="Arial" font-size="24" font-weight="normal" fill="black">
    Modernization of GUI
    <tspan x="190" y="658">Interoperability refactoring</tspan>
  </text>

  <text x="50" y="810" font-family="Arial" font-size="24" font-weight="bold" fill="black">
    2010s
  </text>
  <text x="190" y="810" font-family="Arial" font-size="24" font-weight="normal" fill="black">
    Python API developed in Google Summer of Code
  </text>
  
  <text x="660" y="970" font-family="Arial" font-size="24" font-weight="bold" fill="black">
    2020s
  </text>
  <text x="190" y="930" font-family="Arial" font-size="24" font-weight="normal" fill="black">
    Alan Turing Institute development:
    <tspan x="190" y="958">LLM framework for extensive games</tspan>
    <tspan x="190" y="986">Open-source community building</tspan>
  </text>
  
</svg>